<svg xmlns="http://www.w3.org/2000/svg" width="155" height="30" viewBox="0 0 155 30" fill="none"><path d="M37.6231 21.7508C36.3044 21.7508 35.1879 21.5196 34.2736 21.0541C33.3593 20.5887 32.6622 19.9255 32.1794 19.0615C31.6966 18.1975 31.4281 17.1571 31.3707 15.9433C31.3556 15.3561 31.3496 14.7295 31.3496 14.0571C31.3496 13.3848 31.3556 12.7429 31.3707 12.1284C31.4281 10.9268 31.6996 9.89242 32.1885 9.01931C32.6773 8.14925 33.3804 7.47998 34.2947 7.01453C35.209 6.54908 36.3195 6.31787 37.6231 6.31787C38.5857 6.31787 39.4517 6.44564 40.2182 6.70423C40.9846 6.96281 41.6364 7.3157 42.1735 7.76594C42.7107 8.21618 43.1301 8.74248 43.4288 9.34178C43.7276 9.94109 43.8815 10.5921 43.8965 11.2918C43.9116 11.4196 43.8724 11.5261 43.7789 11.6143C43.6853 11.6995 43.5767 11.7421 43.45 11.7421H41.4312C41.2743 11.7421 41.1476 11.7025 41.048 11.6234C40.9484 11.5443 40.879 11.4135 40.8368 11.2279C40.6104 10.2849 40.2212 9.64296 39.666 9.29919C39.1107 8.95543 38.4257 8.78507 37.605 8.78507C36.6544 8.78507 35.897 9.05278 35.3297 9.5882C34.7624 10.1236 34.4577 11.0058 34.4154 12.2349C34.3732 13.4061 34.3732 14.6078 34.4154 15.8368C34.4577 17.0658 34.7624 17.9481 35.3297 18.4835C35.897 19.0189 36.6544 19.2866 37.605 19.2866C38.4257 19.2866 39.1137 19.1132 39.666 18.7603C40.2182 18.4105 40.6074 17.7716 40.8368 16.8407C40.879 16.6399 40.9514 16.5061 41.048 16.4331C41.1476 16.3631 41.2743 16.3266 41.4312 16.3266H43.45C43.5767 16.3266 43.6883 16.3692 43.7789 16.4544C43.8694 16.5395 43.9086 16.646 43.8965 16.7768C43.8815 17.4765 43.7276 18.1276 43.4288 18.7269C43.1301 19.3262 42.7137 19.8525 42.1735 20.3027C41.6334 20.7529 40.9816 21.1058 40.2182 21.3644C39.4517 21.623 38.5887 21.7508 37.6231 21.7508Z" fill="#020318"></path><path d="M49.7838 21.7507C48.6492 21.7507 47.6957 21.55 46.9232 21.1514C46.1507 20.7529 45.5623 20.1871 45.1579 19.4569C44.7536 18.7268 44.5243 17.8781 44.4669 16.9046C44.4518 16.646 44.4458 16.3326 44.4458 15.9615C44.4458 15.5903 44.4518 15.277 44.4669 15.0184C44.5243 14.0328 44.7596 13.1779 45.1791 12.4569C45.5985 11.7359 46.193 11.1731 46.9654 10.7746C47.7379 10.3761 48.6764 10.1753 49.7838 10.1753C50.8913 10.1753 51.8297 10.3761 52.6022 10.7746C53.3747 11.1762 53.9692 11.7359 54.3886 12.4569C54.808 13.1779 55.0434 14.0328 55.1007 15.0184C55.1158 15.277 55.1219 15.5903 55.1219 15.9615C55.1219 16.3326 55.1158 16.646 55.1007 16.9046C55.0434 17.875 54.8141 18.7268 54.4097 19.4569C54.0054 20.1871 53.417 20.7499 52.6445 21.1514C51.872 21.55 50.9184 21.7507 49.7838 21.7507ZM49.7838 19.6303C50.5352 19.6303 51.1146 19.39 51.528 18.9124C51.9384 18.4348 52.1647 17.729 52.2069 16.8011C52.222 16.5882 52.228 16.3083 52.228 15.9645C52.228 15.6208 52.222 15.3439 52.2069 15.1279C52.1647 14.2122 51.9384 13.5125 51.528 13.0288C51.1176 12.5421 50.5352 12.2987 49.7838 12.2987C49.0325 12.2987 48.4501 12.5421 48.0397 13.0288C47.6293 13.5156 47.403 14.2153 47.3607 15.1279C47.3457 15.3439 47.3396 15.6208 47.3396 15.9645C47.3396 16.3083 47.3457 16.5851 47.3607 16.8011C47.403 17.729 47.6293 18.4348 48.0397 18.9124C48.4501 19.39 49.0325 19.6303 49.7838 19.6303Z" fill="#020318"></path><path d="M56.715 21.5377C56.5732 21.5377 56.4525 21.489 56.3529 21.3886C56.2534 21.2882 56.2051 21.1665 56.2051 21.0235V10.9053C56.2051 10.7623 56.2534 10.6406 56.3529 10.5402C56.4525 10.4398 56.5732 10.3912 56.715 10.3912H58.4592C58.601 10.3912 58.7217 10.4429 58.8213 10.5402C58.9209 10.6406 58.9691 10.7623 58.9691 10.9053V11.7845C59.3373 11.3282 59.808 10.9448 60.3844 10.6376C60.9577 10.3303 61.6698 10.1782 62.5208 10.1782C63.3717 10.1782 64.1352 10.376 64.7749 10.7684C65.4116 11.1608 65.9065 11.7145 66.2535 12.4294C66.6005 13.1443 66.7755 14.0022 66.7755 15.0031V21.0266C66.7755 21.1696 66.7242 21.2913 66.6277 21.3916C66.5281 21.492 66.4074 21.5407 66.2656 21.5407H64.3947C64.2529 21.5407 64.1322 21.492 64.0326 21.3916C63.933 21.2913 63.8847 21.1696 63.8847 21.0266V15.1309C63.8847 14.3034 63.6825 13.6524 63.2782 13.1808C62.8738 12.7093 62.2884 12.472 61.525 12.472C60.7616 12.472 60.2003 12.7093 59.7597 13.1808C59.3192 13.6524 59.1019 14.3034 59.1019 15.1309V21.0266C59.1019 21.1696 59.0506 21.2913 58.9541 21.3916C58.8545 21.492 58.7338 21.5407 58.592 21.5407H56.7211L56.715 21.5377Z" fill="#020318"></path><path d="M68.7067 21.5377C68.5649 21.5377 68.4442 21.489 68.3446 21.3886C68.2451 21.2882 68.1968 21.1665 68.1968 21.0235V10.9053C68.1968 10.7623 68.2451 10.6406 68.3446 10.5402C68.4442 10.4398 68.5649 10.3912 68.7067 10.3912H70.4509C70.5927 10.3912 70.7134 10.4429 70.813 10.5402C70.9126 10.6406 70.9608 10.7623 70.9608 10.9053V11.7845C71.329 11.3282 71.7997 10.9448 72.3761 10.6376C72.9494 10.3303 73.6615 10.1782 74.5125 10.1782C75.3634 10.1782 76.1269 10.376 76.7666 10.7684C77.4033 11.1608 77.8982 11.7145 78.2452 12.4294C78.5922 13.1443 78.7672 14.0022 78.7672 15.0031V21.0266C78.7672 21.1696 78.7159 21.2913 78.6194 21.3916C78.5198 21.492 78.3991 21.5407 78.2573 21.5407H76.3864C76.2446 21.5407 76.1239 21.492 76.0243 21.3916C75.9247 21.2913 75.8764 21.1696 75.8764 21.0266V15.1309C75.8764 14.3034 75.6742 13.6524 75.2699 13.1808C74.8655 12.7093 74.2801 12.472 73.5167 12.472C72.7533 12.472 72.192 12.7093 71.7514 13.1808C71.3109 13.6524 71.0936 14.3034 71.0936 15.1309V21.0266C71.0936 21.1696 71.0423 21.2913 70.9458 21.3916C70.8462 21.492 70.7255 21.5407 70.5837 21.5407H68.7128L68.7067 21.5377Z" fill="#020318"></path><path d="M84.9502 21.7507C83.3781 21.7507 82.1288 21.2944 81.2085 20.3787C80.2881 19.463 79.7902 18.164 79.7208 16.4787C79.7057 16.3357 79.6997 16.1531 79.6997 15.9311C79.6997 15.709 79.7057 15.5356 79.7208 15.4048C79.7782 14.3339 80.0226 13.403 80.4541 12.6182C80.8856 11.8333 81.4861 11.2279 82.2495 10.8081C83.016 10.3852 83.9152 10.1753 84.9502 10.1753C86.0969 10.1753 87.0625 10.4156 87.841 10.8932C88.6196 11.3709 89.208 12.0371 89.6063 12.8859C90.0016 13.7377 90.2008 14.7172 90.2008 15.8337V16.284C90.2008 16.4269 90.1494 16.5486 90.0529 16.649C89.9533 16.7494 89.8266 16.7981 89.6697 16.7981H82.6116V16.9684C82.6267 17.4674 82.7203 17.9298 82.8983 18.3496C83.0763 18.7725 83.3389 19.1101 83.6859 19.3687C84.0329 19.6273 84.4463 19.7551 84.9291 19.7551C85.3244 19.7551 85.6594 19.6942 85.9279 19.5725C86.1965 19.4509 86.4168 19.3109 86.5857 19.1558C86.7547 18.9976 86.8754 18.8698 86.9478 18.7694C87.0746 18.5991 87.1772 18.4956 87.2556 18.4591C87.3341 18.4226 87.4518 18.4044 87.6057 18.4044H89.4343C89.5761 18.4044 89.6938 18.4469 89.7843 18.5321C89.8749 18.6173 89.9141 18.7238 89.902 18.8546C89.8869 19.0828 89.7692 19.3626 89.552 19.6912C89.3317 20.0197 89.0179 20.3422 88.6045 20.6556C88.1941 20.9689 87.6811 21.2305 87.0625 21.4374C86.4469 21.6443 85.7408 21.7477 84.9472 21.7477L84.9502 21.7507ZM82.6116 15.0002H87.3099V14.9363C87.3099 14.3796 87.2164 13.8928 87.0323 13.4791C86.8483 13.0654 86.5797 12.7368 86.2236 12.4934C85.8706 12.25 85.4451 12.1284 84.9472 12.1284C84.4493 12.1284 84.0269 12.25 83.6708 12.4934C83.3147 12.7368 83.0492 13.0654 82.8742 13.4791C82.6961 13.8928 82.6086 14.3796 82.6086 14.9363V15.0002H82.6116Z" fill="#020318"></path><path d="M95.9643 21.7505C94.9443 21.7505 94.0481 21.5589 93.2756 21.1725C92.5031 20.7861 91.8996 20.2264 91.4681 19.4902C91.0366 18.754 90.7982 17.8657 90.756 16.8222C90.7409 16.6092 90.7349 16.3263 90.7349 15.9765C90.7349 15.6266 90.7409 15.3376 90.756 15.1095C90.7982 14.066 91.0366 13.1777 91.4681 12.4415C91.8996 11.7053 92.5031 11.1455 93.2756 10.7592C94.0481 10.3728 94.9443 10.1812 95.9643 10.1812C96.8725 10.1812 97.645 10.3089 98.2817 10.5675C98.9184 10.8261 99.4435 11.1455 99.8539 11.5319C100.264 11.9182 100.572 12.3228 100.78 12.7427C100.985 13.1655 101.094 13.5458 101.109 13.8896C101.124 14.0477 101.076 14.1725 100.97 14.2637C100.865 14.358 100.741 14.4037 100.599 14.4037H98.7283C98.5865 14.4037 98.4779 14.3672 98.3994 14.2972C98.321 14.2272 98.2455 14.1177 98.1761 13.9747C97.9649 13.4028 97.6843 12.9982 97.3372 12.764C96.9902 12.5267 96.5467 12.4111 96.0095 12.4111C95.3004 12.4111 94.7361 12.6362 94.3197 13.0864C93.9003 13.5367 93.677 14.2485 93.6498 15.219C93.6227 15.7635 93.6227 16.2624 93.6498 16.7188C93.677 17.7044 93.9003 18.4193 94.3197 18.8635C94.7391 19.3077 95.3004 19.5267 96.0095 19.5267C96.5617 19.5267 97.0083 19.408 97.3493 19.1738C97.6903 18.9395 97.9649 18.5349 98.1791 17.963C98.2485 17.82 98.324 17.7136 98.4024 17.6405C98.4809 17.5706 98.5895 17.5341 98.7314 17.5341H100.602C100.744 17.5341 100.868 17.5797 100.973 17.674C101.079 17.7683 101.124 17.893 101.112 18.0482C101.097 18.3068 101.031 18.5958 100.91 18.9152C100.789 19.2377 100.599 19.5662 100.337 19.9009C100.074 20.2355 99.7452 20.5428 99.3469 20.8226C98.9486 21.1025 98.4718 21.3276 97.9106 21.498C97.3493 21.6684 96.7005 21.7566 95.9643 21.7566V21.7505Z" fill="#020318"></path><path d="M107.042 21.5377C106.191 21.5377 105.476 21.3886 104.893 21.0875C104.311 20.7863 103.879 20.3421 103.596 19.7489C103.312 19.1557 103.17 18.4165 103.17 17.5312V12.6668H101.489C101.348 12.6668 101.227 12.6181 101.127 12.5177C101.028 12.4173 100.979 12.2956 100.979 12.1526V10.9084C100.979 10.7654 101.028 10.6437 101.127 10.5433C101.227 10.4429 101.348 10.3943 101.489 10.3943H103.17V6.83493C103.17 6.69194 103.215 6.57026 103.309 6.46987C103.4 6.36948 103.526 6.3208 103.68 6.3208H105.403C105.545 6.3208 105.666 6.37252 105.765 6.46987C105.865 6.57026 105.913 6.69194 105.913 6.83493V10.3943H108.572C108.713 10.3943 108.834 10.446 108.934 10.5433C109.033 10.6437 109.082 10.7654 109.082 10.9084V12.1526C109.082 12.2956 109.03 12.4173 108.934 12.5177C108.837 12.6181 108.713 12.6668 108.572 12.6668H105.913V17.3182C105.913 17.9054 106.016 18.3617 106.221 18.6902C106.426 19.0188 106.785 19.1831 107.295 19.1831H108.762C108.904 19.1831 109.024 19.2348 109.124 19.3321C109.223 19.4325 109.272 19.5542 109.272 19.6972V21.0266C109.272 21.1696 109.22 21.2913 109.124 21.3917C109.024 21.4921 108.904 21.5408 108.762 21.5408H107.039L107.042 21.5377Z" fill="#020318"></path><path d="M110.678 21.5377C110.521 21.5377 110.394 21.489 110.294 21.3886C110.195 21.2882 110.146 21.1665 110.146 21.0235V7.06911C110.146 6.91092 110.195 6.78315 110.294 6.68276C110.394 6.58237 110.521 6.53369 110.678 6.53369H112.358C112.558 6.53369 112.705 6.58845 112.805 6.69493C112.905 6.8014 112.968 6.88354 112.995 6.94134L117.099 14.6593L121.245 6.94134C121.272 6.88354 121.336 6.8014 121.435 6.69493C121.535 6.58845 121.683 6.53369 121.882 6.53369H123.541C123.698 6.53369 123.825 6.58541 123.925 6.68276C124.024 6.78315 124.072 6.91092 124.072 7.06911V21.0235C124.072 21.1665 124.021 21.2882 123.925 21.3886C123.825 21.489 123.698 21.5377 123.541 21.5377H121.755C121.598 21.5377 121.474 21.489 121.384 21.3886C121.29 21.2882 121.245 21.1665 121.245 21.0235V11.7419L118.27 17.4642C118.197 17.592 118.107 17.7045 117.992 17.7958C117.877 17.8901 117.73 17.9357 117.546 17.9357H116.673C116.474 17.9357 116.323 17.8901 116.218 17.7958C116.112 17.7045 116.022 17.592 115.952 17.4642L112.977 11.7419V21.0235C112.977 21.1665 112.926 21.2882 112.829 21.3886C112.73 21.489 112.609 21.5377 112.467 21.5377H110.681H110.678Z" fill="#020318"></path><path d="M130.747 21.7507C129.613 21.7507 128.659 21.55 127.887 21.1514C127.114 20.7529 126.526 20.1871 126.121 19.4569C125.717 18.7268 125.488 17.8781 125.43 16.9046C125.415 16.646 125.409 16.3326 125.409 15.9615C125.409 15.5903 125.415 15.277 125.43 15.0184C125.488 14.0328 125.723 13.1779 126.142 12.4569C126.562 11.7359 127.156 11.1731 127.929 10.7746C128.701 10.3761 129.64 10.1753 130.747 10.1753C131.855 10.1753 132.793 10.3761 133.566 10.7746C134.338 11.1762 134.933 11.7359 135.352 12.4569C135.771 13.1779 136.007 14.0328 136.064 15.0184C136.079 15.277 136.085 15.5903 136.085 15.9615C136.085 16.3326 136.079 16.646 136.064 16.9046C136.007 17.875 135.777 18.7268 135.373 19.4569C134.969 20.1871 134.38 20.7499 133.608 21.1514C132.835 21.55 131.882 21.7507 130.747 21.7507ZM130.747 19.6303C131.499 19.6303 132.078 19.39 132.491 18.9124C132.902 18.4348 133.128 17.729 133.17 16.8011C133.185 16.5882 133.191 16.3083 133.191 15.9645C133.191 15.6208 133.185 15.3439 133.17 15.1279C133.128 14.2122 132.902 13.5125 132.491 13.0288C132.081 12.5421 131.499 12.2987 130.747 12.2987C129.996 12.2987 129.413 12.5421 129.003 13.0288C128.593 13.5156 128.366 14.2153 128.324 15.1279C128.309 15.3439 128.303 15.6208 128.303 15.9645C128.303 16.3083 128.309 16.5851 128.324 16.8011C128.366 17.729 128.593 18.4348 129.003 18.9124C129.413 19.39 129.996 19.6303 130.747 19.6303Z" fill="#020318"></path><path d="M137.678 21.5376C137.537 21.5376 137.416 21.4889 137.316 21.3885C137.217 21.2882 137.168 21.1665 137.168 21.0235V10.9265C137.168 10.7683 137.217 10.6406 137.316 10.5402C137.416 10.4398 137.537 10.3911 137.678 10.3911H139.401C139.543 10.3911 139.667 10.4428 139.773 10.5402C139.878 10.6406 139.933 10.7683 139.933 10.9265V11.8057C140.258 11.3494 140.681 10.9995 141.197 10.7562C141.713 10.5128 142.313 10.3911 142.992 10.3911H143.864C144.021 10.3911 144.145 10.4428 144.236 10.5402C144.326 10.6406 144.374 10.7623 144.374 10.9052V12.4476C144.374 12.5906 144.329 12.7123 144.236 12.8127C144.142 12.9131 144.018 12.9617 143.864 12.9617H142.205C141.526 12.9617 140.995 13.1534 140.621 13.5398C140.243 13.9261 140.056 14.4554 140.056 15.1247V21.0204C140.056 21.1634 140.005 21.2851 139.908 21.3855C139.809 21.4859 139.682 21.5346 139.525 21.5346H137.675L137.678 21.5376Z" fill="#020318"></path><path d="M149.372 21.7507C147.799 21.7507 146.55 21.2944 145.63 20.3787C144.71 19.463 144.212 18.164 144.142 16.4787C144.127 16.3357 144.121 16.1531 144.121 15.9311C144.121 15.709 144.127 15.5356 144.142 15.4048C144.2 14.3339 144.444 13.403 144.875 12.6182C145.307 11.8333 145.907 11.2279 146.671 10.8081C147.437 10.3852 148.337 10.1753 149.372 10.1753C150.518 10.1753 151.484 10.4156 152.262 10.8932C153.041 11.3709 153.629 12.0371 154.028 12.8859C154.423 13.7377 154.622 14.7172 154.622 15.8337V16.284C154.622 16.4269 154.571 16.5486 154.474 16.649C154.375 16.7494 154.248 16.7981 154.091 16.7981H147.033V16.9684C147.048 17.4674 147.142 17.9298 147.32 18.3496C147.498 18.7725 147.76 19.1101 148.107 19.3687C148.454 19.6273 148.868 19.7551 149.35 19.7551C149.746 19.7551 150.081 19.6942 150.349 19.5725C150.618 19.4509 150.838 19.3109 151.007 19.1558C151.176 18.9976 151.297 18.8698 151.369 18.7694C151.496 18.5991 151.599 18.4956 151.677 18.4591C151.755 18.4226 151.873 18.4044 152.027 18.4044H153.856C153.998 18.4044 154.115 18.4469 154.206 18.5321C154.296 18.6173 154.335 18.7238 154.323 18.8546C154.308 19.0828 154.191 19.3626 153.973 19.6912C153.753 20.0197 153.439 20.3422 153.026 20.6556C152.615 20.9689 152.102 21.2305 151.484 21.4374C150.868 21.6443 150.162 21.7477 149.369 21.7477L149.372 21.7507ZM147.033 15.0002H151.731V14.9363C151.731 14.3796 151.638 13.8928 151.454 13.4791C151.27 13.0654 151.001 12.7368 150.645 12.4934C150.292 12.25 149.866 12.1284 149.369 12.1284C148.871 12.1284 148.448 12.25 148.092 12.4934C147.736 12.7368 147.471 13.0654 147.296 13.4791C147.118 13.8928 147.03 14.3796 147.03 14.9363V15.0002H147.033Z" fill="#020318"></path><path d="M2.1409 12.7097L0.0150296 3.09984C-0.111033 2.53079 0.608095 2.10461 1.18397 2.40762L22.7062 13.7641C23.411 14.1361 23.0414 15.0722 22.2192 14.9958L2.82278 13.2492C2.48184 13.2197 2.20393 13.0004 2.1409 12.7097Z" fill="#009C48"></path><path d="M2.1409 16.1343L0.0150296 25.7444C-0.111033 26.3135 0.608095 26.7421 1.18397 26.4391L22.7062 15.0824C23.411 14.7104 23.0414 13.7742 22.2192 13.8506L2.82278 15.5972C2.48184 15.6268 2.20393 15.846 2.1409 16.1367V16.1343Z" fill="#009C48"></path></svg>