<svg xmlns="http://www.w3.org/2000/svg" width="17" height="18" viewBox="0 0 17 18" fill="none"><path d="M16.4995 12.9867V15.4002C16.5004 15.6242 16.4545 15.846 16.3648 16.0513C16.275 16.2566 16.1434 16.4408 15.9783 16.5923C15.8132 16.7438 15.6183 16.8591 15.406 16.9308C15.1938 17.0026 14.9689 17.0293 14.7457 17.0091C12.2702 16.7401 9.89235 15.8942 7.80312 14.5394C5.85937 13.3042 4.21141 11.6563 2.97627 9.71253C1.61669 7.61381 0.770593 5.22435 0.50653 2.73772C0.486426 2.51526 0.512865 2.29104 0.584162 2.07936C0.655459 1.86767 0.770052 1.67315 0.920646 1.50818C1.07124 1.34321 1.25454 1.2114 1.45886 1.12115C1.66319 1.03089 1.88407 0.984175 2.10744 0.983965H4.52086C4.91128 0.980122 5.28977 1.11838 5.5858 1.37295C5.88182 1.62753 6.07517 1.98107 6.12981 2.36766C6.23168 3.14001 6.42059 3.89836 6.69295 4.62824C6.80118 4.91618 6.82461 5.22911 6.76045 5.52996C6.69629 5.83081 6.54723 6.10695 6.33093 6.32568L5.30925 7.34737C6.45446 9.36141 8.12206 11.029 10.1361 12.1742L11.1578 11.1525C11.3765 10.9362 11.6527 10.7872 11.9535 10.723C12.2544 10.6589 12.5673 10.6823 12.8552 10.7905C13.5851 11.0629 14.3435 11.2518 15.1158 11.3537C15.5066 11.4088 15.8635 11.6056 16.1186 11.9067C16.3737 12.2078 16.5093 12.5922 16.4995 12.9867Z" stroke="#00431F" stroke-linecap="round" stroke-linejoin="round"></path></svg>